<?xml version="1.0" encoding="UTF-8"?>
<svg version="1.1" viewBox="0 0 177.17 177.17" xmlns="http://www.w3.org/2000/svg">
 <g transform="matrix(.93064 0 0 .93064 7.3818 1.3971)">
  <rect x="15.175" y="45.644" width="144.15" height="96.079" fill="#fafafa"/>
  <g transform="translate(.0027368 .0019119)">
   <path d="m109.39 103.7c0.22145-0.82646 0.3569-1.6467 0.40625-2.4688 0.0494-0.82205 0.0173-1.6402-0.0937-2.4375-0.22202-1.5946-0.73828-3.1265-1.5312-4.5-0.79296-1.3734-1.8551-2.6042-3.125-3.5938-0.63496-0.49478-1.3259-0.91296-2.0625-1.2812s-1.5173-0.6848-2.3438-0.90625c-0.82647-0.22145-1.6467-0.3569-2.4687-0.40625-0.82205-0.0493-1.6402-0.0173-2.4375 0.0937-1.5946 0.22202-3.1266 0.76954-4.5 1.5625-1.0506 0.61945-1.9949 1.5173-2.875 2.5312s-1.7016 2.1364-2.5312 3.1875c-1.1214 1.1214-2.4547 2.0291-3.9375 2.6562-0.74139 0.31358-1.5057 0.55365-2.3125 0.71875s-1.6444 0.25-2.5 0.25-1.6932-0.0849-2.5-0.25-1.6024-0.40517-2.3438-0.71875c-1.4828-0.62716-2.8161-1.5348-3.9375-2.6562s-2.0291-2.4547-2.6562-3.9375c-0.31358-0.74139-0.55365-1.5057-0.71875-2.3125s-0.25-1.6444-0.25-2.5c0-0.85562 0.0849-1.6932 0.25-2.5 0.02398-0.11721 0.06648-0.22777 0.09375-0.34375-1.3012 2.9792-2.0312 6.2599-2.0312 9.7188 0 13.436 10.908 24.313 24.344 24.313 7.2773 0 13.729-3.2484 18.188-8.3125 1.5529-1.764 2.8811-3.7136 3.875-5.875 4e-3 -8e-3 -4e-3 -0.0229 0-0.0312z" fill="#3863c2"/>
   <path d="m87.332 69.264c-9.977 0-18.559 6.0314-22.312 14.625-0.02727 0.11598-0.06977 0.22654-0.09375 0.34375-0.1651 0.80681-0.25 1.6444-0.25 2.5 0 0.85561 0.0849 1.6932 0.25 2.5 0.1651 0.80681 0.40517 1.5711 0.71875 2.3125 0.62716 1.4828 1.5348 2.8161 2.6562 3.9375s2.4547 2.0291 3.9375 2.6562c0.74139 0.31358 1.5369 0.55365 2.3438 0.71875s1.6444 0.25 2.5 0.25 1.6932-0.0849 2.5-0.25 1.5711-0.40517 2.3125-0.71875c1.4828-0.62716 2.8161-1.5348 3.9375-2.6562 0.82965-1.0511 1.6511-2.1736 2.5312-3.1875s1.8244-1.9118 2.875-2.5312c1.3735-0.79296 2.9054-1.3405 4.5-1.5625 0.79728-0.11101 1.6154-0.1431 2.4375-0.0937 0.82204 0.0494 1.6423 0.1848 2.4687 0.40625 0.82645 0.22145 1.6072 0.53796 2.3438 0.90625s1.4275 0.78647 2.0625 1.2812c1.2699 0.98956 2.332 2.2203 3.125 3.5938 0.79297 1.3735 1.3092 2.9054 1.5312 4.5 0.11101 0.79729 0.1431 1.6155 0.0937 2.4375-0.0493 0.82205-0.1848 1.6423-0.40625 2.4688 1.4136-3.0834 2.25-6.4798 2.25-10.094 0-13.436-10.877-24.344-24.313-24.344z" fill="#e7253a"/>
   <g transform="matrix(.83421 -.55145 -.55145 -.83421 120.5 220.79)">
    <path d="m2.0625 111.72v24.281h3.9062v-24.281h-3.9062z"/>
    <path d="m-0.125 124.96h-3.9062v11.031h3.9062v-11.031z"/>
    <path d="m-4.0312 111.71v11h3.9062v-11h-3.9062z"/>
    <path d="m-10.125 111.72v24.281h3.9062v-24.281h-3.9062z"/>
   </g>
   <g transform="matrix(-.83421 .55145 .55145 .83421 72.924 -4.8007)">
    <path d="m5.9688 90.647h-3.9062v11.031h3.9062v-11.031z"/>
    <path d="m2.0625 77.397v11h3.9062v-11h-3.9062z"/>
    <path d="m-4.0312 77.406v24.281h3.9062v-24.281h-3.9062z"/>
    <path d="m-6.2188 90.647h-3.9062v11.031h3.9062v-11.031z"/>
    <path d="m-10.125 77.397v11h3.9062v-11h-3.9062z"/>
   </g>
   <g transform="matrix(-.83421 -.55145 .55145 -.83421 16.888 276.94)">
    <path d="m5.9688 192.27h-3.9062v11.031h3.9062v-11.031z"/>
    <path d="m2.0625 179.02v11h3.9062v-11h-3.9062z"/>
    <path d="m-0.125 192.27h-3.9062v11.031h3.9062v-11.031z"/>
    <path d="m-4.0312 179.02v11h3.9062v-11h-3.9062z"/>
    <path d="m-6.2188 192.27h-3.9062v11.031h3.9062v-11.031z"/>
    <path d="m-10.125 179.02v11h3.9062v-11h-3.9062z"/>
   </g>
   <g transform="matrix(.83421 .55145 -.55145 .83421 141.53 -65.246)">
    <rect x="2.0693" y="149.86" width="3.9149" height="24.281" ry="0"/>
    <rect x="-4.0269" y="149.86" width="3.9149" height="24.281" ry="0"/>
    <rect x="-10.123" y="149.86" width="3.9149" height="24.281" ry="0"/>
   </g>
  </g>
 </g>
</svg>
